Genre:Action | Drama | Family | Sport
Language:English
http://www.imdb.com/title/tt1155076/
Source Video:DVDR.VOBS.Thanks.BB
Source Audio:DVDR.VOBS.Thanks.BB
Encoder: Tony2
.........................................
General
Complete name : Karate.Kids.CAM.XVID.FEEL-FREE.avi
Format : AVI
Format/Info : Audio Video Interleave
Format profile : OpenDML
File size : 1.26 GiB
..........................................
Video
Format : xvid
Codec ID : xvid
Duration : 5h 20mn
Bit rate : 502 Kbps
Width : 704 pixels
Height : 304 pixels
Display aspect ratio : 2.35:1
Frame rate : 29.970 fps
Resolution : 24 bits
Bits/(Pixel*Frame) : 0.078
Stream size : 1.12 GiB (89%)
.............................................
Audio
ID : 1
Format : MPEG Audio
Format version : Version 1
Format profile : Layer 3
Format settings, Mode : Joint stereo / MS Stereo
Codec ID : 55
Codec ID/Hint : MP3
Duration : 2h 13mn
Bit rate mode : Constant
Bit rate : 128 Kbps
Channel(s) : 2 channels
Sampling rate : 48.0 KHz
Resolution : 16 bits
Stream size : 123 MiB (10%)
Alignment : Aligned on interleaves
Interleave, duration : 24 ms (0.72 video frame)
............................................
Plot:
Work causes a single mother to move to China with her young son; in his new home, the boy embraces kung fu, taught to him by a master.

screens 
http://www.starshare.ro/bitbucket/Karate.Kids.CAM.XVID.FEEL-FREE.avi_thumbs_%5B2010.06.15_19.09.04%5D.jpg